<svg width="20" height="20" viewBox="0 0 14 14" fill="none" xmlns="http://www.w3.org/2000/svg">
<path d="M13.2887 11.9649C13.4649 12.141 13.5638 12.3799 13.5638 12.629C13.5638 12.878 13.4649 13.1169 13.2887 13.293C13.1126 13.4692 12.8737 13.5681 12.6247 13.5681C12.3756 13.5681 12.1367 13.4692 11.9606 13.293L7.00045 8.33131L2.03874 13.2915C1.86261 13.4676 1.62374 13.5665 1.37467 13.5665C1.1256 13.5665 0.886731 13.4676 0.710611 13.2915C0.53449 13.1153 0.435547 12.8765 0.435547 12.6274C0.435547 12.3783 0.53449 12.1395 0.710611 11.9633L5.67233 7.00319L0.712173 2.04147C0.536053 1.86535 0.437109 1.62648 0.437109 1.37741C0.437109 1.12834 0.536053 0.889465 0.712173 0.713345C0.888293 0.537225 1.12716 0.438281 1.37624 0.438281C1.62531 0.438281 1.86418 0.537225 2.0403 0.713345L7.00045 5.67506L11.9622 0.712563C12.1383 0.536443 12.3772 0.4375 12.6262 0.4375C12.8753 0.4375 13.1142 0.536443 13.2903 0.712563C13.4664 0.888684 13.5654 1.12755 13.5654 1.37663C13.5654 1.6257 13.4664 1.86457 13.2903 2.04069L8.32858 7.00319L13.2887 11.9649Z" fill="#121212"/>
</svg>
